<svg width="130" height="101" viewBox="0 0 130 101" fill="none" xmlns="http://www.w3.org/2000/svg">
<path d="M111.589 85.7009H126.654V62.186L111.73 54.3925L102.085 34.2656H80.1191" stroke="#0D4560" stroke-width="5" stroke-linecap="round" stroke-linejoin="round"/>
<path d="M40.6777 85.6992H90.8129" stroke="#0D4560" stroke-width="5" stroke-linecap="round" stroke-linejoin="round"/>
<path d="M19.5185 18.6113H3V85.7008H19.8298" stroke="#0D4560" stroke-width="5" stroke-linecap="round" stroke-linejoin="round"/>
<path d="M79.7505 74.5192V18.6113H65.1699" stroke="#0D4560" stroke-width="5" stroke-linecap="round" stroke-linejoin="round"/>
<path d="M88.2793 63.3379H92.5432" stroke="#0D4560" stroke-width="5" stroke-linecap="round" stroke-linejoin="round"/>
<path d="M101.242 97.9989C106.835 97.9989 111.369 93.243 111.369 87.3764C111.369 81.5098 106.835 76.7539 101.242 76.7539C95.6492 76.7539 91.1152 81.5098 91.1152 87.3764C91.1152 93.243 95.6492 97.9989 101.242 97.9989Z" stroke="#0D4560" stroke-width="5" stroke-linecap="round" stroke-linejoin="round"/>
<path d="M30.164 97.9989C35.7569 97.9989 40.2908 93.243 40.2908 87.3764C40.2908 81.5098 35.7569 76.7539 30.164 76.7539C24.5711 76.7539 20.0371 81.5098 20.0371 87.3764C20.0371 93.243 24.5711 97.9989 30.164 97.9989Z" stroke="#0D4560" stroke-width="5" stroke-linecap="round" stroke-linejoin="round"/>
<path d="M63.8814 15.8165L55.4961 4.82215C54.8659 3.95707 53.9657 3.35209 52.9531 3.11312C51.9405 2.87415 50.88 3.01642 49.9573 3.51502C49.4144 3.83083 48.9438 4.2671 48.5783 4.79339C48.2128 5.31967 47.9612 5.92329 47.841 6.5621C47.7209 7.20092 47.7351 7.85954 47.8826 8.49201C48.0302 9.12447 48.3076 9.71555 48.6954 10.224L51.6801 14.1375H24.3089C23.178 14.1375 22.0934 14.6087 21.2938 15.4475C20.4942 16.2863 20.0449 17.4239 20.0449 18.6101C20.0449 19.7964 20.4942 20.934 21.2938 21.7728C22.0934 22.6116 23.178 23.0828 24.3089 23.0828H51.681L48.8732 26.7642C48.1291 27.7196 47.7708 28.9423 47.8747 30.1712C47.9786 31.4 48.5366 32.5375 49.4294 33.3405C50.3147 34.0527 51.4308 34.3726 52.5383 34.2315C53.6458 34.0904 54.6565 33.4997 55.3535 32.586L63.8814 21.4044C64.4862 20.6114 64.8157 19.626 64.8157 18.6105C64.8157 17.5949 64.4862 16.6096 63.8814 15.8165Z" stroke="#0D4560" stroke-width="5" stroke-linecap="round" stroke-linejoin="round"/>
<path d="M79.75 54.3926H111.73" stroke="#0D4560" stroke-width="5" stroke-linejoin="round"/>
<path d="M3 76.7539H126.654" stroke="#0D4560" stroke-width="5" stroke-linejoin="round"/>
</svg>
