<svg width="32" height="32" viewBox="0 0 32 32" fill="none" xmlns="http://www.w3.org/2000/svg">
<g clip-path="url(#clip0_675_17431)">
<path d="M23.313 26.1019L17.017 22.6139C19.357 20.7729 19.993 17.1549 19.993 15.1259V10.9029C19.993 8.10691 16.278 4.99291 12.546 4.99291C8.816 4.99291 5.002 8.10691 5.002 10.9029V15.1259C5.002 16.9709 5.782 20.7019 8.146 22.5979L1.688 26.1009C1.688 26.1009 0 26.8529 0 27.7899V30.3239C0 31.2569 0.757 32.0129 1.688 32.0129H23.313C24.244 32.0129 25.001 31.2559 25.001 30.3239V27.7899C25.001 26.7959 23.312 26.1009 23.312 26.1009L23.313 26.1019ZM23.001 30.0149H2V28.2269C2.143 28.1219 2.344 28.0009 2.502 27.9289C2.549 27.9079 2.596 27.8849 2.641 27.8589L9.1 24.3559C9.689 24.0359 10.079 23.4439 10.139 22.7769C10.199 22.1099 9.92 21.4569 9.398 21.0379C7.721 19.6929 7.002 16.7159 7.002 15.1269V10.9039C7.002 9.46691 9.71 6.99391 12.546 6.99391C15.435 6.99391 17.993 9.43391 17.993 10.9039V15.1269C17.993 16.6929 17.507 19.6839 15.781 21.0419C15.253 21.4579 14.968 22.1119 15.024 22.7809C15.08 23.4499 15.47 24.0479 16.059 24.3699L22.355 27.8579C22.41 27.8879 22.481 27.9209 22.539 27.9469C22.687 28.0099 22.868 28.1139 23.001 28.2059V30.0149ZM30.312 21.1229L23.922 17.6349C26.262 15.7939 26.992 12.1759 26.992 10.1469V5.92391C26.992 3.12791 23.184 -0.0170898 19.452 -0.0170898C17.027 -0.0170898 14.548 1.30191 13.105 2.98991C13.928 3.04091 14.835 3.04191 15.619 3.29191C16.673 2.47091 18.005 1.98391 19.452 1.98391C22.341 1.98391 24.992 4.45391 24.992 5.92491V10.1479C24.992 11.7139 24.412 14.7049 22.687 16.0629C22.158 16.4789 21.874 17.1329 21.93 17.8019C21.986 18.4719 22.375 19.0689 22.965 19.3909L29.355 22.8789C29.41 22.9089 29.481 22.9419 29.539 22.9679C29.687 23.0309 29.868 23.1349 30.001 23.2269V25.0059H25.964C26.574 25.4659 26.758 26.1239 26.995 27.0059H30.314C31.245 27.0059 32.002 26.2489 32.002 25.3169V22.8139C32.001 21.8189 30.312 21.1229 30.312 21.1229Z" fill="#B8F2FF"/>
</g>
<defs>
<clipPath id="clip0_675_17431">
<rect width="32" height="32" fill="white"/>
</clipPath>
</defs>
</svg>
