<svg width="117" height="102" viewBox="0 0 117 102" fill="none" xmlns="http://www.w3.org/2000/svg">
<path fill-rule="evenodd" clip-rule="evenodd" d="M100.062 71.9473C99.0173 71.9474 98.0157 72.3313 97.2772 73.0145L90.2161 79.546L87.0932 76.6574C86.3547 75.9744 85.3531 75.5907 84.3087 75.5907C83.2644 75.5907 82.2628 75.9744 81.5243 76.6574C80.7859 77.3405 80.3711 78.267 80.3711 79.233C80.3711 80.199 80.7859 81.1254 81.5243 81.8086L87.4316 87.2728C88.1702 87.9558 89.1718 88.3394 90.2161 88.3394C91.2604 88.3394 92.262 87.9558 93.0006 87.2728L102.846 78.1657C103.585 77.4826 103.999 76.5561 103.999 75.5901C103.999 74.6241 103.585 73.6977 102.846 73.0145C102.108 72.3313 101.106 71.9474 100.062 71.9473Z" fill="#0D4560"/>
<path fill-rule="evenodd" clip-rule="evenodd" d="M25.2351 65.5723C24.1906 65.5723 23.189 65.956 22.4504 66.6392C21.7119 67.3223 21.2969 68.249 21.2969 69.2151C21.2969 70.1813 21.7119 71.1078 22.4504 71.7909C23.189 72.4741 24.1906 72.858 25.2351 72.858H37.0498C38.0943 72.858 39.096 72.4741 39.8345 71.7909C40.5731 71.1078 40.9881 70.1813 40.9881 69.2151C40.9881 68.249 40.5731 67.3223 39.8345 66.6392C39.096 65.956 38.0943 65.5723 37.0498 65.5723H25.2351Z" fill="#0D4560"/>
<path fill-rule="evenodd" clip-rule="evenodd" d="M16.5941 5.43196e-07C15.8782 -0.000342653 15.1744 0.161945 14.5511 0.471143C13.9277 0.780341 13.4061 1.22591 13.037 1.76451L0.591122 19.9788C0.555354 20.0608 0.522945 20.1438 0.494016 20.2279C0.366261 20.4669 0.268545 20.7174 0.202443 20.975C0.127422 21.1932 0.0758529 21.4171 0.04849 21.6438C0.0298925 21.7145 0.0137545 21.7858 0 21.8573V83.7858C0.000110008 84.7519 0.437169 85.6783 1.21516 86.3615C1.99315 87.0446 3.04837 87.4285 4.14862 87.4286H67.8121C71.2463 95.8984 80.4782 102 91.2696 102C104.968 102 116.161 92.1711 116.161 80.1429C116.161 69.3568 107.155 60.3462 95.4182 58.5989V21.8573C95.4104 21.8264 95.402 21.7955 95.3933 21.7647C95.3851 21.3387 95.2918 20.9173 95.1178 20.5196C95.0944 20.4766 95.0701 20.4339 95.0448 20.3918C94.9818 20.2503 94.9088 20.1125 94.8262 19.9791L82.3803 1.76484C82.0112 1.2262 81.4897 0.780621 80.8664 0.471365C80.2431 0.16211 79.5393 -0.000283488 78.8233 5.43196e-07H16.5941ZM18.9439 7.2857H36.4459L34.0231 18.2142H11.4731L18.9439 7.2857ZM44.9052 7.2857H54.6852L57.189 18.2142H42.4824L44.9052 7.2857ZM63.1526 7.2857H76.4735L83.9443 18.2142H65.6563L63.1526 7.2857ZM8.29685 25.4999H33.1886V54.6427C33.1889 55.3631 33.4324 56.0671 33.8883 56.6659C34.3442 57.2648 34.992 57.7316 35.7499 58.0072C36.5078 58.2829 37.3417 58.3551 38.1463 58.2147C38.9509 58.0742 39.6901 57.7275 40.2704 57.2183L49.783 48.8654L59.2957 57.2183C59.8759 57.7275 60.6151 58.0742 61.4197 58.2147C62.2243 58.3551 63.0582 58.2829 63.8161 58.0072C64.574 57.7316 65.2218 57.2648 65.6777 56.6659C66.1336 56.0671 66.3772 55.3631 66.3775 54.6427V25.4999H87.1206V58.5986C75.3839 60.346 66.3775 69.3566 66.3775 80.1427H8.29685V25.4999ZM41.4858 25.4999H58.0803V45.8487L52.7162 41.1386C51.9382 40.4557 50.8831 40.072 49.783 40.072C48.6829 40.072 47.6279 40.4557 46.8498 41.1386L41.4858 45.8487V25.4999ZM91.2692 65.5713C100.483 65.5713 107.864 72.052 107.864 80.1427C107.864 88.2334 100.483 94.7141 91.2692 94.7141C83.3853 94.7141 76.8447 89.9675 75.1204 83.5294C75.0956 83.2068 75.0221 82.8886 74.9017 82.5831C74.751 81.7891 74.6747 80.9761 74.6747 80.1427C74.6747 72.052 82.0552 65.5713 91.2692 65.5713Z" fill="#0D4560"/>
</svg>
