<svg width="99" height="58" viewBox="0 0 99 58" fill="none" xmlns="http://www.w3.org/2000/svg">
<g filter="url(#filter0_d_675_19891)">
<path d="M77.1113 25.9337C81.5 23.6362 84.5 19.0475 84.5 13.75C84.5 6.15625 78.3437 0 70.75 0C63.1563 0 57 6.15625 57 13.75C57 19.0475 60 23.6362 64.3887 25.9337C54.3625 28.8625 47 38.5113 47 50H94.5C94.5 38.5113 87.1375 28.8625 77.1113 25.9337ZM59.5 13.75C59.5 7.54625 64.5463 2.5 70.75 2.5C76.9537 2.5 82 7.54625 82 13.75C82 19.9537 76.9537 25 70.75 25C64.5463 25 59.5 19.9537 59.5 13.75ZM70.75 27.5C81.6687 27.5 90.6912 36.2662 91.87 47.5H49.63C50.8088 36.2662 59.8313 27.5 70.75 27.5Z" fill="white"/>
<path d="M24.8837 4L4 24.8838L24.8837 45.7675L26.6513 44L7.535 24.8838L26.6513 5.7675L24.8837 4Z" fill="white"/>
</g>
<defs>
<filter id="filter0_d_675_19891" x="0" y="0" width="98.5" height="58" filterUnits="userSpaceOnUse" color-interpolation-filters="sRGB">
<feFlood flood-opacity="0" result="BackgroundImageFix"/>
<feColorMatrix in="SourceAlpha" type="matrix" values="0 0 0 0 0 0 0 0 0 0 0 0 0 0 0 0 0 0 127 0" result="hardAlpha"/>
<feOffset dy="4"/>
<feGaussianBlur stdDeviation="2"/>
<feComposite in2="hardAlpha" operator="out"/>
<feColorMatrix type="matrix" values="0 0 0 0 0 0 0 0 0 0 0 0 0 0 0 0 0 0 0.25 0"/>
<feBlend mode="normal" in2="BackgroundImageFix" result="effect1_dropShadow_675_19891"/>
<feBlend mode="normal" in="SourceGraphic" in2="effect1_dropShadow_675_19891" result="shape"/>
</filter>
</defs>
</svg>
