<svg width="38" height="38" viewBox="0 0 38 38" fill="none" xmlns="http://www.w3.org/2000/svg">
<rect width="37.024" height="37.024" rx="10.68" fill="#F6F6F6"/>
<path d="M29 13.5477V25.1385C29 25.8918 28.39 26.5018 27.6367 26.5018H24.4542V18.7752L19 22.8668L13.5458 18.7752V26.5027H10.3633C10.1842 26.5027 10.0069 26.4674 9.84142 26.3988C9.67595 26.3302 9.52562 26.2297 9.39902 26.1031C9.27241 25.9764 9.172 25.826 9.10354 25.6605C9.03507 25.495 8.99989 25.3176 9 25.1385V13.5477C9 11.8618 10.9242 10.8993 12.2725 11.911L13.5458 12.8668L19 16.9568L24.4542 12.8652L25.7275 11.911C27.075 10.9002 29 11.8618 29 13.5477Z" fill="#2A2F2F"/>
</svg>
