<svg width="40" height="40" viewBox="0 0 40 40" fill="none" xmlns="http://www.w3.org/2000/svg">
<g clip-path="url(#clip0_687_4050)">
<path d="M39.6307 18.1371L20.807 1.30441C20.7741 1.2715 20.7412 1.24682 20.7001 1.22214C20.2887 0.827237 19.6306 0.810782 19.1945 1.19746L0.370845 18.0302C-0.0898745 18.4415 -0.122783 19.1408 0.280347 19.6016C0.502479 19.8484 0.806883 19.9718 1.11129 19.9718C1.37456 19.9718 1.63782 19.8813 1.85173 19.6921L5.24131 16.6562V17.2486V26.0352V36.2862C5.24131 37.8247 6.49183 39.0834 8.03854 39.0834C8.06322 39.0834 8.07967 39.0834 8.10435 39.0834C8.12903 39.0834 8.14549 39.0834 8.17017 39.0834H13.9785C15.4265 39.0834 16.603 37.9069 16.603 36.459V26.4794C16.603 26.2573 16.784 26.0763 17.0061 26.0763H23.0037C23.2258 26.0763 23.4068 26.2573 23.4068 26.4794V36.459C23.4068 37.9069 24.5833 39.0834 26.0313 39.0834H31.9713C33.5344 39.0834 34.7685 37.5449 34.7685 35.5787V26.4301V23.6329V16.7632L38.1581 19.799C38.372 19.9882 38.6353 20.0787 38.8985 20.0787C39.2029 20.0787 39.5073 19.9553 39.7295 19.7085C40.1244 19.2478 40.0832 18.5485 39.6307 18.1371ZM32.5389 23.6246V26.4219V35.5622C32.5389 36.3602 32.144 36.8456 31.963 36.8456H26.0231C25.8009 36.8456 25.6199 36.6646 25.6199 36.4425V26.4794C25.6199 25.0315 24.4434 23.855 22.9955 23.855H16.9979C15.5499 23.855 14.3734 25.0315 14.3734 26.4794V36.459C14.3734 36.6811 14.1924 36.8621 13.9703 36.8621H8.16194C8.13726 36.8621 8.12081 36.8621 8.09612 36.8621C8.07144 36.8621 8.05499 36.8621 8.03031 36.8621C7.71768 36.8621 7.45441 36.607 7.45441 36.2862V26.0269V17.2404V14.6653L19.9432 3.50928L32.5389 14.7722V23.6246Z" fill="#B8F2FF"/>
</g>
<defs>
<clipPath id="clip0_687_4050">
<rect width="40" height="40" fill="white"/>
</clipPath>
</defs>
</svg>
