<svg width="150" height="150" viewBox="0 0 150 150" fill="none" xmlns="http://www.w3.org/2000/svg">
<rect width="150" height="150" rx="75" fill="#146A93"/>
<path d="M98.0695 81.8301L75 103.125L51.9305 81.8301C39.0797 90.0496 30.4688 104.881 30.4688 121.875H119.531C119.531 104.881 110.92 90.0496 98.0695 81.8301Z" fill="white"/>
<path d="M75 84.375C83.3203 84.375 90.7711 80.7422 95.9203 75C100.385 70.0219 103.125 63.4641 103.125 56.25C103.125 40.718 90.532 28.125 75 28.125C59.468 28.125 46.875 40.718 46.875 56.25C46.875 63.4641 49.6148 70.0219 54.0797 75C59.2289 80.7422 66.6797 84.375 75 84.375Z" fill="white"/>
</svg>
