<svg width="467" height="452" viewBox="0 0 467 452" fill="none" xmlns="http://www.w3.org/2000/svg">
<path fill-rule="evenodd" clip-rule="evenodd" d="M136.009 78.339L183.676 86.7802L226.954 63.959L265.214 93.6577H313.821L333.892 137.736L376.855 159.933L374.034 208.389L401.63 248.091L376.229 289.669L382.186 337.813L340.164 362.823L322.916 408.465L274.307 411.904L237.616 444.415L193.399 424.72L146.044 436.913L115.939 399.086L68.5838 387.832L59.8038 340.001L23.425 308.114L37.8513 261.534L20.6038 216.204L55.1 181.816L61.0575 133.673L107.471 118.666L136.009 78.339Z" fill="#00C8F5" stroke="#B8F2FF" stroke-width="12.5"/>
<path fill-rule="evenodd" clip-rule="evenodd" d="M160.784 138.361C176.15 132.422 192.144 129.608 208.451 129.921C224.759 130.233 240.753 133.985 255.805 140.55C270.859 147.115 284.03 156.806 295.319 168.686C306.609 180.565 315.39 194.633 321.035 209.638C334.52 239.65 335.46 274.038 323.858 304.987C312.254 335.937 288.734 360.946 258.941 374.701C243.575 380.641 227.581 383.455 211.274 383.142C194.966 382.83 178.973 379.078 163.92 372.513C148.866 365.948 135.695 356.257 124.406 344.69C113.116 332.811 104.335 319.055 98.6901 303.737C85.2051 273.726 84.2651 239.337 95.8676 208.388C107.158 177.438 130.678 152.117 160.784 138.361Z" fill="#00C8F5" stroke="#B8F2FF" stroke-width="12.5"/>
<path fill-rule="evenodd" clip-rule="evenodd" d="M386.891 148.679L9 308.114L42.2412 388.144L420.446 228.709L386.891 148.679Z" fill="#00C8F5" stroke="#B8F2FF" stroke-width="12.5"/>
<path d="M83.9511 355.007L68.2711 361.573C67.3299 362.198 66.3886 362.198 65.4486 362.51C64.5074 362.51 63.5661 362.51 62.6261 361.885C61.6849 361.572 61.0574 360.947 60.4311 360.009C59.8036 359.072 59.4899 358.447 59.1761 357.508L41.9286 316.868C41.3011 314.992 41.3011 313.117 41.9286 311.24C42.2411 310.303 42.8686 309.678 43.8099 309.053C44.4374 308.427 45.3774 308.114 46.3186 307.802L63.5661 300.612C65.7624 299.674 67.9574 298.735 70.1524 298.423C72.0336 298.11 73.9149 298.11 75.7974 298.423C77.3649 298.735 78.9337 299.362 80.1874 299.987C81.4424 300.612 83.0099 301.862 83.9511 302.8C85.2049 304.05 85.8324 305.613 86.4599 307.177C87.7136 309.678 88.0274 312.492 87.3999 315.304C86.7736 318.118 85.5186 320.619 83.6374 322.495C86.7736 321.869 90.2224 322.495 93.0449 324.058C95.8674 325.622 98.0624 328.122 99.3174 331.248C100.571 334.062 101.199 337.188 100.571 340.314C100.259 343.128 98.6899 345.942 96.8086 348.129C95.2399 349.693 93.6724 350.943 92.1049 351.882L83.9511 355.007ZM73.2886 331.248L62.3124 335.938L68.8974 351.882L80.1874 347.192C87.3999 344.378 89.5961 340.002 87.7136 334.687C87.3999 333.437 86.7736 332.499 85.8324 331.56C84.8911 330.623 83.6374 329.998 82.3824 329.998C79.2462 329.373 76.1111 329.998 73.2886 331.248ZM53.5311 314.054L59.1761 328.122L68.8974 324.058C71.0936 323.433 72.9749 322.183 74.5424 320.932C75.7974 319.682 76.4249 318.118 76.7374 316.555C77.0511 315.304 77.0511 314.054 76.7374 312.804C76.4249 311.553 75.7974 310.615 74.8561 309.99C73.9149 309.365 72.9749 308.739 71.7199 308.739C68.5836 309.053 65.4486 309.678 62.6261 311.24L53.5311 314.054Z" fill="#00C8F5" stroke="#B8F2FF" stroke-width="12.5"/>
<path d="M136.636 305.613L132.873 307.176L140.086 324.371C140.712 326.246 140.712 328.122 140.086 329.997C139.772 330.623 139.459 331.561 138.831 331.873C138.204 332.498 137.576 332.811 136.95 333.123C136.322 333.436 135.381 333.75 134.755 333.75C134.127 333.75 133.186 333.436 132.559 333.123C130.991 332.186 129.736 330.623 129.11 328.747L111.861 287.168C111.234 285.293 111.234 283.417 111.861 281.542C112.175 280.603 112.802 279.978 113.742 279.353C114.37 278.728 115.311 278.416 116.252 278.103L133.5 270.912C135.381 269.975 137.576 269.35 139.459 268.725C141.026 268.412 142.908 268.412 144.79 268.725C146.671 268.725 148.552 269.35 150.435 269.975C152.316 270.912 153.884 272.163 155.139 273.413C156.393 274.977 157.648 276.852 158.275 278.728C159.529 282.167 159.529 286.231 158.275 289.67C156.706 293.421 153.884 296.86 150.435 299.048C152.944 299.361 155.452 300.298 157.647 301.55C160.156 302.8 162.665 304.363 164.86 305.926C167.055 307.176 168.937 309.052 170.505 310.615C171.446 311.553 172.386 312.803 173.327 313.741C173.641 314.68 173.641 315.305 173.327 316.242C173.327 317.181 172.7 317.806 172.386 318.743C171.76 319.681 170.819 320.306 169.878 320.62C168.938 320.932 167.682 320.932 166.742 320.62C165.801 320.306 164.546 319.993 163.92 319.368C162.665 318.431 161.097 317.493 159.842 316.555L152.63 310.928C150.435 309.365 148.239 307.802 146.044 306.551C144.476 305.613 142.907 305.301 141.34 305.301C139.459 305.301 137.89 305.926 136.322 306.551L136.636 305.613ZM133.186 280.603L123.465 284.668L129.736 299.673L139.145 295.61C141.34 294.672 143.221 293.733 145.104 292.171C146.671 291.233 147.613 289.67 148.239 288.107C148.866 286.543 148.866 284.668 148.239 282.792C147.613 281.542 146.671 280.291 145.417 279.353C144.162 278.416 142.595 278.103 141.34 278.103C138.517 278.416 135.381 279.041 132.873 280.291H133.186V280.603Z" fill="#00C8F5" stroke="#B8F2FF" stroke-width="12.5"/>
<path d="M232.913 284.98L227.581 279.353L206.57 288.419V296.234C206.884 298.423 206.884 300.611 206.57 302.8C206.256 303.425 205.943 304.05 205.629 304.363C205.001 304.988 204.689 305.3 204.061 305.3C203.434 305.613 202.806 305.613 201.866 305.613C201.239 305.613 200.298 305.613 199.67 305.3C199.044 304.988 198.416 304.675 197.789 304.363C197.161 303.738 196.848 303.425 196.535 302.8C196.221 301.861 196.221 301.236 196.535 300.299C196.535 299.36 196.535 298.11 196.535 296.548L195.28 255.906C195.28 254.656 195.28 253.405 195.28 251.53C195.28 250.28 195.28 248.716 195.28 247.466C195.594 246.215 195.908 245.278 196.848 244.34C197.475 243.089 198.73 242.464 199.984 241.839C201.239 241.526 202.806 241.526 204.061 241.839C205.315 241.839 206.256 242.464 207.198 243.089L210.02 245.278L213.155 249.029L241.066 278.103C242.634 279.665 243.889 281.229 245.143 283.418C245.456 284.043 245.456 284.668 245.456 285.293C245.456 285.918 245.456 286.544 245.143 287.169C244.829 287.794 244.516 288.419 243.889 289.044C243.261 289.67 242.634 289.983 242.006 290.295H239.498C238.871 290.608 238.244 290.608 237.616 290.295C236.675 289.67 236.049 289.044 235.108 288.419L232.913 284.98ZM205.943 278.728L221.623 272.163L204.375 253.093L205.943 278.728Z" fill="#00C8F5" stroke="#B8F2FF" stroke-width="12.5"/>
<path d="M265.84 221.518L299.396 244.652L286.225 212.765C285.598 210.889 285.598 209.013 286.225 207.45C286.539 206.825 286.853 206.2 287.165 205.574C287.793 204.949 288.106 204.637 289.048 204.324C289.675 204.012 290.615 204.012 291.243 204.012C291.87 204.012 292.81 204.012 293.438 204.324C295.006 205.262 295.946 206.825 296.574 208.388L313.821 250.904C315.704 255.594 314.763 258.72 310.999 260.283H308.178C307.236 260.595 306.295 260.595 305.668 260.283L302.846 259.033L300.024 257.157L267.095 234.023L280.266 265.598C280.894 267.16 280.894 269.037 280.266 270.912C279.953 271.537 279.639 272.163 279.013 272.788C278.385 273.413 277.758 273.725 277.13 274.038C276.503 274.35 275.563 274.35 274.935 274.35C274.308 274.35 273.368 274.038 272.74 273.725C271.171 272.788 270.231 271.224 269.604 269.662L252.356 228.083C251.729 226.52 251.415 225.269 251.415 223.707C251.415 222.457 251.729 221.205 252.356 219.955C252.983 218.704 253.924 218.079 255.179 217.454C256.119 217.142 257.06 217.142 257.688 217.454C258.314 217.142 259.255 217.142 259.883 217.454C260.823 217.767 261.45 218.392 262.391 218.704L265.84 221.518Z" fill="#00C8F5" stroke="#B8F2FF" stroke-width="12.5"/>
<path d="M329.503 188.068L342.986 182.442C346.123 181.19 349.259 180.253 352.395 179.628C355.218 179.315 358.354 179.628 361.176 180.565C365.253 182.129 368.703 184.629 371.839 188.068C374.974 191.508 377.17 194.947 378.424 199.323C379.679 202.137 380.619 205.263 381.246 208.389C381.56 211.203 381.56 214.015 381.246 216.517C380.933 219.33 380.305 221.832 379.365 224.332C378.424 226.208 377.483 227.772 376.229 229.334C374.974 230.897 373.406 232.148 371.525 233.398L365.253 236.524L351.768 242.464C350.2 243.089 348.631 243.402 347.064 243.402C345.809 243.089 344.869 242.464 344.241 241.527C343.3 240.275 342.674 239.025 342.046 237.462L324.798 197.759C324.171 195.884 324.171 194.008 324.798 192.133C325.425 191.194 326.053 190.257 326.993 189.632C327.62 188.694 328.561 188.068 329.503 188.068ZM337.343 194.947L352.395 231.523L360.235 228.084L364.311 226.208L367.134 224.332C368.075 223.394 368.703 222.457 369.33 221.519C370.27 218.705 370.898 215.267 370.584 212.14C370.27 209.014 369.33 205.888 368.075 203.074C366.508 199.01 363.999 194.947 360.863 192.133C358.668 190.257 355.845 189.319 353.023 189.632C349.886 189.944 347.064 190.882 344.241 192.133L337.343 194.947Z" fill="#00C8F5" stroke="#B8F2FF" stroke-width="12.5"/>
<path fill-rule="evenodd" clip-rule="evenodd" d="M162.037 40.1996L208.137 48.0146L249.846 26.1309L286.851 54.5796H333.892L353.335 96.7833L395.045 118.041L392.222 164.308L418.879 202.448L394.417 242.463L400.062 288.418L359.607 312.803L342.359 356.57L295.319 359.696L260.822 390.957L218.172 372.513L172.386 384.08L143.535 347.503L97.7499 336.875L89.2824 291.232L54.7862 260.908L68.8974 216.203L51.6499 172.75L84.8912 139.612L90.8499 93.3446L135.695 78.9646L162.037 40.1996Z" fill="black" stroke="#B8F2FF" stroke-width="12.5"/>
<path fill-rule="evenodd" clip-rule="evenodd" d="M164.86 25.1937L154.825 23.3188L125.346 65.5212L75.7976 81.1525L69.5251 132.735L32.2063 169.624L50.7088 217.455L35.0288 265.91L73.9163 300.299L83.3238 350.63L133.814 362.51L165.801 402.525L216.291 389.707L263.645 410.34L302.533 375.952L354.276 372.514L372.779 324.37L417.31 297.485L411.039 246.841L438.009 202.761L408.844 159.308L411.979 107.725L366.194 84.2788L344.869 37.6988H293.124L251.729 8L205.943 32.3838L164.86 25.1937ZM162.039 41.1375L208.138 48.9525L249.846 27.07L286.853 55.5175H333.893L353.335 97.7213L395.045 118.98L392.223 165.247L418.879 203.386L394.418 243.401L400.063 289.356L359.608 313.741L342.36 357.508L295.319 360.634L260.823 391.896L218.173 373.451L172.388 385.019L143.535 348.441L97.75 337.187L89.2826 291.545L54.7863 261.221L68.8988 216.516L51.65 173.062L84.8926 140.238L90.85 93.97L135.695 79.59L162.039 41.1375Z" fill="#00C8F5" stroke="#B8F2FF" stroke-width="12.5"/>
<path fill-rule="evenodd" clip-rule="evenodd" d="M186.185 97.4091C208.451 86.7803 233.226 83.0278 257.686 86.4678C282.148 89.9066 304.728 100.848 322.916 117.417C341.105 133.985 353.963 155.557 359.608 179.628C365.253 203.387 363.684 228.709 354.904 251.53C346.123 274.352 330.756 294.359 310.685 308.427C290.615 322.494 266.468 330.31 242.006 330.935C217.545 331.56 193.085 324.37 172.386 310.928C151.689 297.485 135.695 278.103 125.974 255.594C113.116 226.52 112.175 194.008 123.465 164.309C134.755 134.61 157.334 110.539 186.185 97.4091Z" fill="white" stroke="#B8F2FF" stroke-width="12.5"/>
<path fill-rule="evenodd" clip-rule="evenodd" d="M179.914 82.7152C153.885 92.0939 130.991 109.289 114.998 131.796C98.6901 154.305 89.5963 181.19 88.655 208.701C87.7138 236.524 95.2413 263.723 110.294 287.169C125.033 310.615 146.671 329.059 172.074 340.314C197.475 351.568 225.699 354.694 252.983 349.693C280.266 344.69 305.668 331.56 325.425 312.178C345.183 292.795 358.666 267.786 364.311 240.588C369.956 213.39 367.134 185.255 356.471 159.62C343.3 126.17 317.271 99.2839 284.343 84.9039C250.788 70.5239 213.469 69.5852 179.914 82.7152ZM186.185 97.4089C208.451 86.7802 233.226 83.0289 257.686 86.4676C282.148 89.9064 304.728 100.848 322.916 117.416C341.105 133.985 353.649 155.869 359.608 179.628C365.566 203.386 363.685 228.709 354.904 251.53C346.123 274.351 330.756 294.359 310.686 308.426C290.615 322.494 266.468 330.31 242.006 330.935C217.233 331.248 193.085 324.37 172.388 310.928C151.689 297.485 135.695 278.103 125.974 255.594C113.116 226.52 112.175 194.008 123.465 164.309C134.755 134.61 157.334 110.851 186.185 97.4089Z" fill="#00C8F5" stroke="#B8F2FF" stroke-width="12.5"/>
<path fill-rule="evenodd" clip-rule="evenodd" d="M405.08 107.412L39.4199 259.97L71.7199 336.562L437.067 184.003L405.08 107.412Z" fill="black" stroke="#B8F2FF" stroke-width="12.5"/>
<path fill-rule="evenodd" clip-rule="evenodd" d="M458.079 192.757L413.547 86.4658L18.4087 251.216L63.8799 357.507L458.079 192.757ZM405.08 106.786L39.4199 259.345L71.7212 335.936L437.067 183.378L405.08 106.786Z" fill="#00C8F5" stroke="#B8F2FF" stroke-width="12.5"/>
<path d="M111.861 304.989L96.4949 311.24C95.5537 311.554 94.6137 311.867 93.6724 311.867C92.7324 311.867 91.7912 311.554 90.8499 311.24C89.5962 311.24 88.3412 309.053 87.4012 306.864L71.7199 268.412C71.0937 266.537 71.0937 264.66 71.7199 262.785C71.7199 261.222 73.6024 260.284 75.7974 259.034L92.1049 252.469C94.2999 251.53 96.1812 250.905 98.3762 250.28C100.259 249.968 102.14 249.968 104.021 250.28C105.59 250.593 106.844 251.218 108.099 251.843C109.352 252.469 110.607 253.406 111.861 254.656C112.802 255.908 113.744 257.158 114.37 258.72C115.311 261.221 115.939 263.723 115.311 266.537C114.684 269.038 113.43 271.538 111.547 273.414C114.684 272.789 117.82 273.414 120.642 274.977C123.465 276.54 125.66 279.042 126.601 281.855C127.855 284.668 128.169 287.794 127.855 290.608C127.229 293.422 125.974 296.235 124.092 298.11C122.837 299.362 121.27 300.612 119.389 301.55C116.879 302.8 114.684 304.05 111.861 304.989ZM101.512 282.168L90.8499 286.544L97.1224 301.55L108.099 297.173C114.684 294.359 117.192 290.295 115.311 285.294C114.997 284.043 114.37 283.105 113.43 282.168C112.489 281.229 111.547 280.917 110.294 280.604C107.157 280.292 104.335 280.917 101.512 282.168ZM82.3824 264.973L88.0274 278.415L97.4362 274.664C99.3174 273.727 101.199 272.789 103.081 271.538C103.707 270.913 104.021 270.288 104.649 269.663C104.962 269.038 105.276 268.099 105.276 267.474C105.59 266.224 105.59 264.973 105.276 263.723C104.021 260.909 102.454 259.659 100.572 259.659C97.4362 259.659 94.6137 260.597 91.7912 261.847L82.3824 264.973Z" fill="#00C8F5" stroke="#B8F2FF" stroke-width="12.5"/>
<path d="M162.665 257.781L159.216 259.032L166.115 276.226C166.429 277.164 166.743 278.101 166.743 279.04C166.743 279.977 166.429 280.915 166.115 281.854C165.801 282.479 165.488 283.104 164.86 283.729C164.234 284.354 163.606 284.666 162.979 284.98C162.351 285.292 161.725 285.605 160.784 285.605C160.156 285.605 159.216 285.292 158.589 284.98C157.02 284.041 155.766 282.479 155.139 280.602L137.891 240.9C137.264 239.025 137.264 237.149 137.891 235.272C138.831 233.71 140.4 232.46 141.968 231.834L159.216 224.956C161.098 224.019 162.979 223.394 165.174 222.769C166.743 222.456 168.624 222.456 170.191 222.769C172.074 222.769 173.955 223.394 175.523 224.019C177.091 224.644 178.659 225.895 180.228 227.145C181.481 228.707 182.423 230.271 183.363 231.834C184.618 235.272 184.618 239.025 183.363 242.464C182.423 242.15 181.481 241.837 180.541 241.837C179.6 241.837 178.659 242.151 177.719 242.776C176.778 243.401 176.15 244.026 175.836 244.964C175.21 245.902 175.209 246.84 175.209 247.777C175.209 248.716 175.523 249.654 175.836 250.591C176.464 251.529 177.091 252.155 177.719 252.78C178.345 253.405 179.6 253.717 180.541 253.717C181.481 253.717 182.423 253.717 183.363 253.092C185.871 254.342 188.068 255.906 190.576 257.469C192.458 258.72 194.339 260.282 195.908 261.845C196.848 262.784 197.789 263.721 198.416 264.971C198.73 265.597 198.73 266.535 198.416 267.16C198.103 268.097 197.789 269.036 197.161 269.661C196.534 270.286 195.908 270.911 194.966 271.224C194.025 271.536 192.771 271.536 191.83 271.224C190.89 270.911 189.949 270.599 189.008 269.974L185.245 267.16L178.031 261.845C176.15 260.282 173.955 258.72 171.76 257.469C170.191 256.844 168.624 256.219 167.056 256.219C165.488 256.219 163.606 256.531 162.351 257.156L162.665 257.781ZM159.529 233.397L150.121 237.461L156.08 251.841L165.174 247.777C167.369 247.152 169.251 245.902 171.133 244.651C172.388 243.714 173.328 242.464 173.955 240.9C174.583 239.337 174.583 237.461 173.955 235.899C173.328 234.647 172.7 233.397 171.446 232.772C170.191 232.146 168.938 231.521 167.369 231.834C164.548 231.834 162.038 232.46 159.529 233.397Z" fill="#00C8F5" stroke="#B8F2FF" stroke-width="12.5"/>
<path d="M255.805 238.087L250.474 232.461L230.09 240.901V248.717C230.404 250.905 230.404 252.781 230.09 254.969C230.09 256.22 228.835 257.157 227.581 257.782C226.954 258.095 226.326 258.095 225.699 258.095C225.072 258.095 224.445 258.095 223.817 257.782C223.19 257.47 222.564 257.157 221.936 256.845C221.309 256.532 220.995 255.907 220.681 255.282C220.369 254.344 220.369 253.719 220.681 252.781C220.681 251.53 220.681 250.28 220.681 249.03L219.427 210.265V206.201C219.114 204.95 219.114 203.387 219.427 202.136C219.741 200.886 220.055 199.949 220.681 199.01C221.622 198.072 222.564 197.135 223.817 196.822C225.072 196.51 226.326 196.51 227.895 196.822C229.149 196.822 230.09 197.447 231.03 198.072C231.971 198.697 232.912 199.324 233.54 200.261L236.675 203.387L263.645 231.21C265.214 232.774 266.467 234.336 267.409 236.212C267.722 236.837 267.722 237.462 267.722 238.087C267.722 238.714 267.722 239.338 267.409 239.963C267.095 240.588 266.781 241.214 266.154 241.839C265.527 242.465 264.9 242.777 264.272 243.09C263.645 243.402 262.705 243.402 262.077 243.09C261.45 243.09 260.822 243.09 260.196 243.09L258 241.214L255.805 238.087ZM229.776 232.149L244.829 225.896L227.581 207.764L229.776 232.149Z" fill="#00C8F5" stroke="#B8F2FF" stroke-width="12.5"/>
<path d="M288.106 177.126L320.407 199.635L307.55 168.998C306.922 167.435 306.922 165.559 307.55 163.996C307.864 163.371 308.177 162.745 308.49 162.12C309.117 161.495 309.431 161.183 310.059 160.87C310.686 160.558 311.313 160.558 312.254 160.558C312.881 160.558 313.821 160.558 314.449 160.87C316.017 161.808 316.957 163.371 317.585 164.934L334.832 205.574C336.715 209.951 335.774 213.078 332.324 214.64C331.384 214.953 330.442 214.953 329.501 214.64C328.561 214.953 327.62 214.953 326.993 214.64C326.053 214.328 325.111 214.015 324.484 213.39L321.975 211.514L288.42 189.631L301.277 219.955C301.905 221.518 301.905 223.394 301.277 224.956C300.964 225.583 300.65 226.208 300.336 226.833C299.71 227.458 299.396 227.77 298.769 228.083C298.141 228.395 297.515 228.708 296.574 228.708C295.946 228.708 295.005 228.395 294.379 228.083C292.81 227.145 291.87 225.895 291.243 224.019L273.68 184.004C273.054 182.753 272.74 181.19 272.426 179.94C272.426 178.689 272.74 177.439 273.367 176.501C273.994 175.563 275.249 174.625 276.19 174H278.699C279.325 173.688 280.266 173.688 280.894 174C281.834 174.313 282.461 174.938 283.402 175.25L288.106 177.126Z" fill="#00C8F5" stroke="#B8F2FF" stroke-width="12.5"/>
<path d="M349.572 145.553L362.744 139.925C365.88 138.675 368.702 137.738 372.151 137.111C374.974 136.799 377.796 137.111 380.305 138.05C384.382 139.613 387.832 141.801 390.967 144.615C394.104 147.741 396.299 151.18 397.554 155.244C398.807 158.058 399.749 160.871 400.376 163.998C400.69 166.498 400.69 169.311 400.376 171.813C400.062 174.314 399.435 176.815 398.495 179.003C397.554 180.879 396.612 182.441 395.359 183.693C394.104 185.255 392.536 186.505 390.967 187.444L385.01 190.57L371.839 196.196C370.584 196.823 369.016 197.135 367.447 197.135C366.82 197.135 366.194 196.823 365.88 196.51C365.252 196.196 364.939 195.884 364.625 195.259C363.685 194.009 363.057 192.758 362.43 191.508L346.436 153.368C345.809 151.493 345.809 149.616 346.436 147.741C346.75 146.803 347.377 146.178 348.004 145.553C348.631 144.928 349.572 144.615 350.514 144.303L349.572 145.553ZM356.785 152.43L371.525 186.819L379.051 183.693L383.127 181.816C384.069 181.504 385.01 180.879 385.95 179.94C386.891 179.003 387.519 178.065 387.832 177.128C388.772 174.314 389.4 171.5 389.086 168.374C388.772 165.248 387.832 162.434 386.577 159.933C385.01 155.869 382.814 152.43 379.679 149.304C377.482 147.429 374.974 146.803 372.151 146.803C369.329 147.115 366.507 148.054 363.685 148.991L357.099 151.805V152.43H356.785Z" fill="#00C8F5" stroke="#B8F2FF" stroke-width="12.5"/>
</svg>
