<svg width="119" height="105" viewBox="0 0 119 105" fill="none" xmlns="http://www.w3.org/2000/svg">
<path fill-rule="evenodd" clip-rule="evenodd" d="M92.9688 91.875C92.9688 95.4975 89.6367 98.4375 85.5312 98.4375H33.4688C29.3633 98.4375 26.0312 95.4975 26.0312 91.875V19.6875C26.0312 16.065 29.3633 13.125 33.4688 13.125H85.5312C89.6367 13.125 92.9688 16.065 92.9688 19.6875V91.875ZM85.5312 6.5625V0H78.0938V6.5625H63.2188V0H55.7812V6.5625H40.9062V0H33.4688V6.5625C25.254 6.5625 18.5938 12.4392 18.5938 19.6875V91.875C18.5938 99.1233 25.254 105 33.4688 105H85.5312C93.746 105 100.406 99.1233 100.406 91.875V19.6875C100.406 12.4392 93.746 6.5625 85.5312 6.5625ZM81.8125 32.8125H37.1875C35.1348 32.8125 33.4688 34.2825 33.4688 36.0938C33.4688 37.9083 35.1348 39.375 37.1875 39.375H81.8125C83.8652 39.375 85.5312 37.9083 85.5312 36.0938C85.5312 34.2825 83.8652 32.8125 81.8125 32.8125ZM81.8125 72.1875H37.1875C35.1348 72.1875 33.4688 73.6542 33.4688 75.4688C33.4688 77.2833 35.1348 78.75 37.1875 78.75H81.8125C83.8652 78.75 85.5312 77.2833 85.5312 75.4688C85.5312 73.6542 83.8652 72.1875 81.8125 72.1875ZM81.8125 52.5H37.1875C35.1348 52.5 33.4688 53.97 33.4688 55.7812C33.4688 57.5958 35.1348 59.0625 37.1875 59.0625H81.8125C83.8652 59.0625 85.5312 57.5958 85.5312 55.7812C85.5312 53.97 83.8652 52.5 81.8125 52.5Z" fill="#0D4560"/>
</svg>
