<svg width="30" height="30" viewBox="0 0 30 30" fill="none" xmlns="http://www.w3.org/2000/svg">
<g clip-path="url(#clip0_675_17417)">
<path d="M2.66864 26.2062C1.20696 26.2062 0.000488281 25.0229 0.000488281 23.5381V2.7265C0.000488281 1.26482 1.18375 0.0583496 2.66864 0.0583496H22.2505C23.7122 0.0583496 24.9187 1.24162 24.9187 2.7265V12.5638L24.8259 12.5406C24.4314 12.4246 24.0602 12.3782 23.6426 12.3782H23.6194L23.5962 12.3086H23.5266V2.7265C23.5266 2.05366 22.9234 1.45043 22.2505 1.45043H2.66864C1.9958 1.45043 1.39257 2.05366 1.39257 2.7265V23.5381C1.39257 24.2109 1.9958 24.8141 2.66864 24.8141H12.9468L12.97 24.8373C13.2252 25.1854 13.086 25.4406 12.9932 25.6262C12.9004 25.7886 12.854 25.9046 13.0164 26.067L13.1556 26.2062H2.66864Z" fill="#B8F2FF"/>
<path d="M4.17667 5.1626C3.92146 5.1626 3.71265 4.83778 3.71265 4.44336C3.71265 4.04894 3.92146 3.72412 4.17667 3.72412H12.0651C12.3203 3.72412 12.5291 4.04894 12.5291 4.44336C12.5291 4.83778 12.3203 5.1626 12.0651 5.1626H4.17667Z" fill="#B8F2FF"/>
<path d="M12.0651 3.7937H4.17667C3.96786 3.7937 3.78225 4.07212 3.78225 4.44334C3.78225 4.81456 3.96786 5.09297 4.17667 5.09297H12.0651C12.2739 5.09297 12.4595 4.81456 12.4595 4.44334C12.4595 4.07212 12.2971 3.7937 12.0651 3.7937ZM4.08387 8.87478C3.87506 8.87478 3.71265 8.57317 3.71265 8.15555C3.71265 7.73792 3.87506 7.4363 4.08387 7.4363H9.74498C9.95379 7.4363 10.1162 7.73792 10.1162 8.15555C10.1162 8.57317 9.95379 8.87478 9.74498 8.87478H4.08387Z" fill="#B8F2FF"/>
<path d="M9.74495 7.50598H4.08384C3.92143 7.50598 3.80542 7.78439 3.80542 8.15561C3.80542 8.52683 3.92143 8.80525 4.08384 8.80525H9.74495C9.90736 8.80525 10.0234 8.52683 10.0234 8.15561C10.0234 7.78439 9.88416 7.50598 9.74495 7.50598ZM21.4384 29.9416C20.6264 29.9416 19.7447 29.8952 18.6078 29.8024C16.9606 29.6632 15.4525 28.8976 13.9908 27.4823L7.40162 21.0323C5.87034 19.5474 5.80073 17.5985 7.16961 16.1137C7.74964 15.5104 8.65449 15.1392 9.62894 15.1392C10.6034 15.1392 11.485 15.5104 12.0419 16.1601C12.0651 16.1833 12.1115 16.2297 12.2043 16.2761C12.2275 16.2993 12.2739 16.3225 12.2971 16.3457V13.2367V11.7054C12.2971 10.5221 12.2971 9.31568 12.3203 8.13241C12.3435 6.36911 13.7124 5.02344 15.5221 5.02344H15.5453C17.2854 5.02344 18.6078 6.29951 18.7007 8.03961C18.7239 8.43403 18.7239 8.85165 18.7007 9.26927V9.8029H19.0487C20.2551 9.8029 21.1832 10.2205 21.856 11.1022C21.8792 11.1486 22.0184 11.195 22.204 11.195C22.2737 11.195 22.3433 11.195 22.3897 11.1718C22.5985 11.1486 22.8073 11.1254 22.9929 11.1254C23.9209 11.1254 24.733 11.4966 25.429 12.2622C25.545 12.3782 25.8002 12.4711 26.0323 12.4711H26.1251C26.2875 12.4479 26.4731 12.4247 26.6355 12.4247C28.3756 12.4247 29.7677 13.6543 29.7909 15.2552C29.8605 18.2018 29.9069 21.1019 29.5821 23.9789C29.1876 27.4591 27.3315 29.3152 23.7121 29.7792C23.0393 29.8952 22.2737 29.9416 21.4384 29.9416ZM9.51294 16.4617C9.02571 16.4617 8.56169 16.6473 8.21367 16.9721C7.79604 17.3897 7.56403 17.877 7.56403 18.4106C7.56403 18.9674 7.81924 19.5242 8.28327 19.9883L9.16492 20.8699C11.0906 22.7724 13.0859 24.7213 15.0812 26.647C16.0557 27.5751 17.1694 28.1783 18.399 28.4103C19.3503 28.596 20.3015 28.6888 21.2296 28.6888C22.0648 28.6888 22.9001 28.6192 23.7121 28.4567C26.6587 27.9231 28.0044 26.5078 28.2828 23.7701C28.538 21.1483 28.5148 18.457 28.4684 15.8584V15.4408C28.4452 14.4896 27.7724 13.8399 26.8211 13.8399C26.5659 13.8399 26.3339 13.8863 26.0787 13.9791V17.5985C26.0787 17.9234 26.0787 18.5498 25.429 18.5498H25.4058C25.197 18.5498 25.0346 18.5034 24.9418 18.3874C24.7562 18.2018 24.733 17.8538 24.733 17.5753V17.4361C24.733 16.3689 24.7562 15.2784 24.733 14.1879C24.7098 13.2367 24.0369 12.5639 23.1089 12.5639C22.8769 12.5639 22.6449 12.6103 22.4361 12.6799V16.4385C22.4361 16.7633 22.3665 17.0185 22.204 17.1809C22.088 17.2969 21.9256 17.3665 21.7168 17.3665H21.6936C21.0672 17.3433 21.0672 16.6937 21.0672 16.4617V14.9304V12.9815C21.0672 12.5407 20.8816 12.0766 20.5336 11.7286C20.2087 11.4038 19.7679 11.2182 19.3271 11.2182C19.1415 11.2182 18.9327 11.2414 18.7471 11.311V12.9815C18.7471 13.7703 18.7471 14.6056 18.7007 15.4176C18.6774 15.6264 18.4918 15.7888 18.3062 15.9512C18.2366 16.0209 18.1438 16.0905 18.0742 16.1601L18.0046 16.2297L17.9582 16.1137C17.9118 16.0441 17.8422 15.9744 17.7726 15.928C17.6334 15.7656 17.471 15.6032 17.3782 15.4176C17.3086 15.2784 17.3318 15.116 17.3318 14.9768V14.7912V12.7727C17.3318 11.2878 17.3318 9.7565 17.3086 8.24842C17.3086 7.13476 16.5893 6.39231 15.5453 6.36911C14.4084 6.36911 13.6428 7.18116 13.6428 8.36442V19.2922L13.3412 19.4778L13.318 19.4314C13.1091 19.1994 12.8771 18.9674 12.6683 18.7354C12.1811 18.225 11.6707 17.6681 11.1602 17.1577C10.6962 16.7169 10.1162 16.4617 9.51294 16.4617Z" fill="#B8F2FF"/>
</g>
<defs>
<clipPath id="clip0_675_17417">
<rect width="30" height="30" fill="white"/>
</clipPath>
</defs>
</svg>
