<svg width="49" height="40" viewBox="0 0 49 40" fill="none" xmlns="http://www.w3.org/2000/svg">
<path d="M18.0968 37.0197H21.1935C22.8968 37.0197 24.2903 35.8346 24.2903 34.3862V31.7527C24.2903 30.3042 22.8968 29.1191 21.1935 29.1191H18.0968C16.3935 29.1191 15 30.3042 15 31.7527V34.3862C15 35.8346 16.3935 37.0197 18.0968 37.0197Z" fill="#0D4560"/>
<path d="M28.8712 37.0203H31.968C33.6712 37.0203 35.0647 35.6197 35.0647 33.9079V23.0147C35.0647 21.3029 33.6712 19.9023 31.968 19.9023H28.8712C27.168 19.9023 25.7744 21.3029 25.7744 23.0147V33.9079C25.7744 35.6197 27.168 37.0203 28.8712 37.0203Z" fill="#0D4560"/>
<path d="M38.9354 37.0205H41.258C42.5354 37.0205 43.5805 35.5688 43.5805 33.7944V7.98584C43.5805 6.2115 42.5354 4.75977 41.258 4.75977H38.9354C37.658 4.75977 36.6128 6.2115 36.6128 7.98584V33.7944C36.6128 35.5688 37.658 37.0205 38.9354 37.0205Z" fill="#0D4560"/>
<path d="M15.1167 14.8115L18.2035 14.8097L18.3371 26.6572L21.4394 26.6284L21.3058 14.781L24.0363 14.8059L19.6359 4.26424L15.1167 14.8115Z" fill="#0D4560"/>
</svg>
