<svg width="40" height="40" viewBox="0 0 40 40" fill="none" xmlns="http://www.w3.org/2000/svg">
<g clip-path="url(#clip0_675_17442)">
<path d="M38.0215 20.4492L36.9167 19.3016C36.7993 19.1788 36.6399 19.1042 36.4709 19.0918C36.3874 19.0856 28.0932 18.4576 23.1315 16.751C22.104 16.3977 21.1745 15.3978 20.1904 14.3392C18.8979 12.9487 17.5612 11.5106 15.6904 11.1476C14.767 10.9675 14.0528 11.7169 13.2233 12.5836C12.3821 13.4621 11.3346 14.5566 9.84261 15.0224C6.59025 16.0382 1.57472 15.0169 1.52503 15.0058C1.32836 14.9651 1.12754 15.0113 0.968825 15.1307C0.810106 15.2501 0.710734 15.433 0.696242 15.631L0.00201787 25.1742C-0.0110937 25.3557 0.0489435 25.5337 0.166948 25.6718L0.478176 27.6337C0.530622 27.9621 0.808726 28.2057 1.14135 28.2154L24.3233 28.8337C24.4006 28.8634 24.482 28.8786 24.5787 28.8786C24.5883 28.8786 24.5987 28.8786 24.609 28.8786C31.1282 28.7247 35.0955 28.2458 35.1093 28.243C37.5619 28.0325 39.2257 27.0816 39.795 25.5655C40.3657 24.0466 39.7356 22.2289 38.0215 20.4492ZM1.61198 25.9747C5.07551 26.1914 17.014 26.9029 22.8707 26.789C22.9846 26.9664 23.1343 27.2169 23.2592 27.4239L1.75138 26.8504L1.61198 25.9747ZM38.5032 25.0804C38.1367 26.0561 36.8566 26.7076 34.9665 26.8711C34.9285 26.876 31.2449 27.319 25.1383 27.4839C25.1217 27.4825 25.1073 27.4736 25.09 27.4729L24.9016 27.468C24.7774 27.2721 24.6111 26.9953 24.4862 26.7869C23.8099 25.6559 23.6574 25.4012 23.2075 25.4012C23.1971 25.4012 23.1868 25.4012 23.1771 25.4012C17.3611 25.5496 4.54691 24.776 1.42842 24.58L2.01637 16.4971C3.63393 16.7586 7.43491 17.2196 10.2532 16.3404C12.0854 15.7684 13.3193 14.48 14.2198 13.5387C14.5925 13.1502 15.2121 12.5022 15.4192 12.5022C15.4219 12.5022 15.424 12.5022 15.4261 12.5022C16.5247 12.7161 17.4763 13.5166 18.3762 14.4337L15.5751 16.8014C15.2839 17.0471 15.2473 17.4825 15.4937 17.7738C15.6303 17.9352 15.8249 18.018 16.0209 18.018C16.1783 18.018 16.337 17.9642 16.466 17.8552L19.3257 15.4371C19.5735 15.7035 19.8247 15.9685 20.0807 16.2259C20.0731 16.2321 20.0634 16.2335 20.0552 16.2397L17.0954 18.7419C16.8042 18.9876 16.7676 19.4231 17.014 19.7143C17.1506 19.8757 17.3452 19.9586 17.5412 19.9586C17.6985 19.9586 17.8572 19.9054 17.9863 19.7957L20.9461 17.2935C21.002 17.2458 21.0399 17.1872 21.0772 17.1285C21.5761 17.5267 22.104 17.8579 22.6809 18.056C27.3631 19.666 34.6063 20.3243 36.1024 20.4464L37.0257 21.4057C38.3327 22.7624 38.8703 24.1011 38.5032 25.0804Z" fill="#B8F2FF"/>
<path d="M13.5179 20.8694L12.0515 21.5264L5.36043 18.6363C5.00987 18.4852 4.6041 18.6466 4.45366 18.9958C4.30254 19.3457 4.46401 19.7522 4.81389 19.9033L11.7837 22.9134C11.8707 22.9514 11.9645 22.97 12.057 22.97C12.1536 22.97 12.2495 22.95 12.3392 22.9093L14.0824 22.1274C14.4302 21.9715 14.5855 21.5636 14.4295 21.2158C14.2736 20.8687 13.8643 20.7121 13.5179 20.8694Z" fill="#B8F2FF"/>
</g>
<defs>
<clipPath id="clip0_675_17442">
<rect width="40" height="40" fill="white"/>
</clipPath>
</defs>
</svg>
