<svg width="40" height="40" viewBox="0 0 40 40" fill="none" xmlns="http://www.w3.org/2000/svg">
<path d="M35.0626 0H13.97C12.8126 0 11.7967 0.600856 11.2085 1.5053H13.1528C13.4045 1.39102 13.6767 1.31796 13.9703 1.31796H35.0626C36.1529 1.31796 37.0388 2.2043 37.0388 3.29478V30.6827C37.0388 31.6868 36.2765 32.4861 35.3058 32.6109C35.2421 33.1103 35.0759 33.5753 34.8131 33.9762H35.0628C36.8809 33.9762 38.3589 32.4994 38.3589 30.6827V3.29348C38.3587 1.47804 36.8806 0 35.0626 0Z" fill="#B8F2FF"/>
<path d="M30.546 3.0105H9.45406C8.29662 3.0105 7.28073 3.61223 6.69165 4.51645H8.63664C8.88832 4.40239 9.15985 4.32867 9.45406 4.32867H30.5457C31.6386 4.32867 32.5243 5.21502 32.5243 6.30594V33.6943C32.5243 34.6984 31.7608 35.4953 30.7913 35.6201C30.7276 36.1193 30.5601 36.5841 30.2986 36.9878H30.5471C32.3664 36.9878 33.8458 35.511 33.8458 33.6917V6.30594C33.8434 4.48854 32.3651 3.0105 30.546 3.0105Z" fill="#B8F2FF"/>
<path d="M26.0291 6.02197H4.93745C3.1194 6.02197 1.64136 7.4987 1.64136 9.31676V36.7053C1.64136 38.5221 3.1194 40.0001 4.93745 40.0001H26.0291C27.8487 40.0001 29.3281 38.5234 29.3281 36.7053V9.31676C29.3281 7.50001 27.8485 6.02197 26.0291 6.02197ZM28.0079 36.7053C28.0079 37.7943 27.1209 38.6826 26.0291 38.6826H4.93745C3.84588 38.6826 2.95932 37.7956 2.95932 36.7053V9.31676C2.95932 8.22693 3.84566 7.33928 4.93745 7.33928H26.0291C27.1209 7.33928 28.0079 8.22693 28.0079 9.31676V36.7053Z" fill="#B8F2FF"/>
<path d="M17.4991 23.4992C18.9771 22.5071 19.9957 20.5445 19.9957 18.7788C19.9957 16.2859 17.9778 14.2642 15.4837 14.2642C12.9908 14.2642 10.9723 16.2861 10.9723 18.7788C10.9723 20.5445 11.9909 22.5071 13.465 23.4992C9.93508 24.3956 7.31421 27.4673 7.31421 29.7423C7.31421 32.4301 23.6568 32.4301 23.6568 29.7423C23.6547 27.4673 21.0358 24.3956 17.4991 23.4992ZM15.4839 31.7557L13.1923 29.469L15.1192 24.8102H15.0987L14.3511 23.9498C14.7149 24.08 15.0896 24.1596 15.4826 24.1596C15.8765 24.1596 16.2496 24.0813 16.6121 23.954L15.8629 24.8091H15.8464L17.7748 29.4679L15.4839 31.7557Z" fill="#B8F2FF"/>
</svg>
