<svg width="1440" height="1024" viewBox="0 0 1440 1024" fill="none" xmlns="http://www.w3.org/2000/svg">
<g clip-path="url(#clip0_31_287)">
<rect width="1440" height="1024" fill="#0E72A1"/>
<path fill-rule="evenodd" clip-rule="evenodd" d="M17.1581 -37.4838L25.2801 112.913C33.4022 263.31 49.6463 564.104 189.976 612.057C330.305 660.009 231.399 159.404 380 190.5C946 786.5 1098.03 306.767 1197 439C1229.5 608.5 1108.5 647.5 1530.5 877.001L1452.94 1043.63L1155.13 1650.45L1089.11 1618.04C1023.08 1585.64 891.021 1520.83 758.964 1456.02C626.907 1391.21 494.85 1326.41 362.793 1261.6C230.736 1196.79 98.6794 1131.98 -33.3775 1067.17C-165.434 1002.36 -297.491 937.555 -363.52 905.151L-429.548 872.746L17.1581 -37.4838Z" fill="#146A93"/>
</g>
<defs>
<clipPath id="clip0_31_287">
<rect width="1440" height="1024" fill="white"/>
</clipPath>
</defs>
</svg>
