<svg width="26" height="23" viewBox="0 0 26 23" fill="none" xmlns="http://www.w3.org/2000/svg">
<path fill-rule="evenodd" clip-rule="evenodd" d="M8.125 10.7812C8.125 10.3845 8.489 10.0625 8.9375 10.0625C9.386 10.0625 9.75 10.3845 9.75 10.7812V19.4062C9.75 19.8037 9.386 20.125 8.9375 20.125C8.489 20.125 8.125 19.8037 8.125 19.4062V10.7812ZM12.1875 10.7812C12.1875 10.3845 12.5515 10.0625 13 10.0625C13.4485 10.0625 13.8125 10.3845 13.8125 10.7812V19.4062C13.8125 19.8037 13.4485 20.125 13 20.125C12.5515 20.125 12.1875 19.8037 12.1875 19.4062V10.7812ZM16.25 10.7812C16.25 10.3845 16.614 10.0625 17.0625 10.0625C17.511 10.0625 17.875 10.3845 17.875 10.7812V19.4062C17.875 19.8037 17.511 20.125 17.0625 20.125C16.614 20.125 16.25 19.8037 16.25 19.4062V10.7812ZM4.0625 20.125C4.0625 21.7127 5.51769 23 7.3125 23H18.6875C20.4823 23 21.9375 21.7127 21.9375 20.125V8.625H4.0625V20.125ZM15.4375 2.875H10.5625V2.15625C10.5625 1.75878 10.9265 1.4375 11.375 1.4375H14.625C15.0735 1.4375 15.4375 1.75878 15.4375 2.15625V2.875ZM21.9375 2.875H17.0625V1.4375C17.0625 0.644 16.3345 0 15.4375 0H10.5625C9.6655 0 8.9375 0.644 8.9375 1.4375V2.875H4.0625C3.1655 2.875 2.4375 3.519 2.4375 4.3125V5.75C2.4375 6.5435 3.16468 7.18678 4.06168 7.1875H21.9391C22.8353 7.18678 23.5625 6.5435 23.5625 5.75V4.3125C23.5625 3.519 22.8345 2.875 21.9375 2.875Z" fill="#0D4560"/>
</svg>
