<svg width="21" height="22" viewBox="0 0 21 22" fill="none" xmlns="http://www.w3.org/2000/svg">
<path d="M2.58333 21.9375H18.0833C19.5042 21.9375 20.6667 20.925 20.6667 19.6875V9.5625C20.6667 8.325 19.5042 7.3125 18.0833 7.3125H5.8125V5.0625C5.8125 2.89125 7.84106 1.125 10.3333 1.125C12.8256 1.125 14.8542 2.89125 14.8542 5.0625H16.1458C16.1458 2.27138 13.5386 0 10.3333 0C7.12806 0 4.52083 2.27138 4.52083 5.0625V7.3125H2.58333C1.1625 7.3125 0 8.325 0 9.5625V19.6875C0 20.925 1.1625 21.9375 2.58333 21.9375ZM1.29167 9.5625C1.29167 8.94206 1.87098 8.4375 2.58333 8.4375H18.0833C18.7957 8.4375 19.375 8.94206 19.375 9.5625V19.6875C19.375 20.3079 18.7957 20.8125 18.0833 20.8125H2.58333C1.87098 20.8125 1.29167 20.3079 1.29167 19.6875V9.5625Z" fill="black"/>
</svg>
