<svg width="122" height="141" viewBox="0 0 122 141" fill="none" xmlns="http://www.w3.org/2000/svg">
<path d="M95.8741 87.8483L110.278 38.067H32.3325L27.2491 20.4971H12.7083V26.3537H23.584L40.4836 84.7677L29.13 114.203H99.1249V108.347H36.9532L44.8603 87.8483H95.8741ZM103.222 43.9236L92.209 81.9917H45.0408L34.0278 43.9236H103.222Z" fill="#0D4560"/>
<path d="M50.8333 128.846C53.6408 128.846 55.9167 126.224 55.9167 122.989C55.9167 119.755 53.6408 117.133 50.8333 117.133C48.0259 117.133 45.75 119.755 45.75 122.989C45.75 126.224 48.0259 128.846 50.8333 128.846Z" fill="#0D4560"/>
<path d="M81.3333 128.846C84.1408 128.846 86.4167 126.224 86.4167 122.989C86.4167 119.755 84.1408 117.133 81.3333 117.133C78.5259 117.133 76.25 119.755 76.25 122.989C76.25 126.224 78.5259 128.846 81.3333 128.846Z" fill="#0D4560"/>
</svg>
