<svg width="55" height="56" viewBox="0 0 55 56" fill="none" xmlns="http://www.w3.org/2000/svg">
<path d="M43.2219 35L49.7154 15.1666H14.5761L12.2844 8.16663H5.72913V10.5H10.6321L18.2508 33.7726L13.1324 45.5H44.6875V43.1666H16.6592L20.2239 35H43.2219ZM46.5345 17.5L41.5696 32.6666H20.3053L15.3404 17.5H46.5345Z" fill="white"/>
<path d="M22.9167 51.3333C24.1823 51.3333 25.2083 50.2886 25.2083 49C25.2083 47.7113 24.1823 46.6666 22.9167 46.6666C21.651 46.6666 20.625 47.7113 20.625 49C20.625 50.2886 21.651 51.3333 22.9167 51.3333Z" fill="white"/>
<path d="M36.6667 51.3333C37.9323 51.3333 38.9583 50.2886 38.9583 49C38.9583 47.7113 37.9323 46.6666 36.6667 46.6666C35.401 46.6666 34.375 47.7113 34.375 49C34.375 50.2886 35.401 51.3333 36.6667 51.3333Z" fill="white"/>
</svg>
