<svg width="716" height="1071" viewBox="0 0 716 1071" fill="none" xmlns="http://www.w3.org/2000/svg">
<path d="M113.824 876.808L160.196 921.763C219.567 979.319 171.781 1079.35 89.6992 1069.34L-24.1127 1055.46C-87.0731 1047.78 -134.261 994.097 -133.805 930.671L-130.02 403.85C-129.906 388.004 -127.909 372.227 -124.071 356.852L-40.3066 21.2601C-37.1881 8.76643 -25.9646 3.99891e-05 -13.0876 3.17358e-05C1.20084 3.30834e-05 13.2066 10.7392 14.7929 24.9393L45.7185 301.756C45.3496 353.1 85.6729 395.532 136.969 397.779L623.141 419.073C679.49 421.542 721.672 471.68 714.463 527.62C702.581 619.825 524.581 690.235 445.656 641.106C387.851 605.125 340.545 577.238 334.293 570.836C318.938 555.114 429.091 730.18 272.531 728.524C257.771 728.367 243.097 724.89 229.087 720.241L195.371 709.054C203.66 739.495 186.886 776.548 147.097 780.679C99.6918 785.6 79.6047 843.634 113.824 876.808Z" fill="#0E72A1"/>
</svg>
