<svg width="672" height="812" viewBox="0 0 672 812" fill="none" xmlns="http://www.w3.org/2000/svg">
<path d="M599.764 193.952L553.071 149.332C493.288 92.2032 540.354 -8.17318 622.505 1.24983L736.414 14.3155C799.428 21.5434 847 74.884 847 138.311V596.337C847 655.111 821.147 710.911 776.31 748.911L709.041 805.923C707.029 807.628 704.734 808.966 702.259 809.875C687.574 815.274 672 804.406 672 788.761V768.5C672 717.154 631.373 675.013 580.062 673.135L93.7498 655.334C37.3842 653.271 -5.15706 603.437 1.64971 547.446C12.869 455.159 190.359 383.472 269.635 432.032C327.696 467.597 375.202 495.143 381.5 501.5C396.967 517.112 285.559 342.841 442.127 343.373C456.888 343.423 471.586 346.795 485.63 351.343L519.425 362.288C510.917 331.907 527.425 294.734 567.183 290.318C614.552 285.056 634.221 226.879 599.764 193.952Z" fill="#0E72A1"/>
</svg>
