<svg width="23" height="32" viewBox="0 0 23 32" fill="none" xmlns="http://www.w3.org/2000/svg">
<g filter="url(#filter0_d_1299_5172)">
<path d="M4.31635 11.3418L17.1617 0.272174C17.2618 0.18581 17.3806 0.117323 17.5113 0.0706233C17.6419 0.0239236 17.782 -7.41207e-05 17.9234 1.7197e-07C18.0649 7.44646e-05 18.2049 0.0242194 18.3355 0.0710563C18.4661 0.117893 18.5848 0.186505 18.6848 0.272974C18.7847 0.359443 18.864 0.462076 18.918 0.575013C18.972 0.68795 18.9998 0.808979 18.9997 0.931191C18.9996 1.0534 18.9717 1.1744 18.9175 1.28728C18.8633 1.40016 18.7839 1.50271 18.6838 1.58908L6.59211 12.0011L18.6838 22.4115C18.7839 22.4977 18.8633 22.6002 18.9176 22.713C18.9718 22.8258 18.9998 22.9467 19 23.0688C19.0002 23.1909 18.9725 23.3119 18.9186 23.4248C18.8646 23.5377 18.7855 23.6403 18.6857 23.7268C18.5859 23.8133 18.4673 23.8819 18.3368 23.9288C18.2063 23.9756 18.0664 23.9999 17.925 24C17.7837 24.0002 17.6437 23.9762 17.513 23.9296C17.3824 23.883 17.2636 23.8147 17.1636 23.7284L4.31635 12.6587C4.21608 12.5724 4.13652 12.4697 4.08223 12.3568C4.02794 12.2438 4 12.1226 4 12.0003C4 11.8779 4.02794 11.7568 4.08223 11.6438C4.13652 11.5308 4.21608 11.4282 4.31635 11.3418Z" fill="black"/>
</g>
<defs>
<filter id="filter0_d_1299_5172" x="0" y="0" width="23" height="32" filterUnits="userSpaceOnUse" color-interpolation-filters="sRGB">
<feFlood flood-opacity="0" result="BackgroundImageFix"/>
<feColorMatrix in="SourceAlpha" type="matrix" values="0 0 0 0 0 0 0 0 0 0 0 0 0 0 0 0 0 0 127 0" result="hardAlpha"/>
<feOffset dy="4"/>
<feGaussianBlur stdDeviation="2"/>
<feComposite in2="hardAlpha" operator="out"/>
<feColorMatrix type="matrix" values="0 0 0 0 0 0 0 0 0 0 0 0 0 0 0 0 0 0 0.25 0"/>
<feBlend mode="normal" in2="BackgroundImageFix" result="effect1_dropShadow_1299_5172"/>
<feBlend mode="normal" in="SourceGraphic" in2="effect1_dropShadow_1299_5172" result="shape"/>
</filter>
</defs>
</svg>
