<svg width="1621" height="614" viewBox="0 0 1621 614" fill="none" xmlns="http://www.w3.org/2000/svg">
<path d="M210.511 613.977L0.533733 614.002C0.520183 614.002 0.509276 613.991 0.509373 613.977L0.509516 613.974L0.510024 613.971L54.3745 392.006L117.899 147.905C133.84 86.649 179.002 37.2154 238.572 15.8178L251.114 11.3127C335.162 -18.8776 428.516 18.4363 468.594 98.2403L479.26 119.478C484.595 130.102 487.374 141.827 487.374 153.717C487.374 207.466 541.466 244.361 591.509 224.746L636.668 207.046C687.297 187.202 744.813 207.561 771.679 254.837L789.961 287.007C803.642 311.083 823.637 330.966 847.788 344.512L899.623 373.587L923.865 387.184C962.521 408.867 1010.65 403.814 1043.96 374.574C1093.73 330.893 1171.05 343.897 1203.79 401.453L1223.85 436.73C1253.28 488.468 1326.01 493.274 1362 445.858C1395.28 402.003 1461.27 402.151 1494.35 446.154L1620.5 613.972C1620.5 613.974 1620.51 613.975 1620.51 613.975C1604.5 613.974 1468.91 613.976 1446.01 613.975C1422.51 613.974 1326.51 613.975 1107.51 613.977L962.009 613.977L839.009 613.977L210.511 613.977Z" fill="#0E72A1"/>
</svg>
