<svg width="75" height="67" viewBox="0 0 75 67" fill="none" xmlns="http://www.w3.org/2000/svg">
<path d="M71.6901 52.0184L64.7047 42.8386C60.3185 37.2714 54.7338 23.318 54.5735 17.5325L54.5552 16.6697C54.5134 14.2813 54.4658 11.5749 52.8407 9.28933C50.4937 5.98796 45.3738 4.88395 41.657 6.88653C39.3183 8.14423 37.8935 10.4397 37.6615 12.8326C33.8913 9.75345 31.3739 5.32525 29.1428 1.3627L28.3749 0L26.8091 0.556188C20.8763 2.66225 14.1513 5.05058 9.74763 10.0068C4.91156 15.453 3.61866 22.7558 6.53332 28.1769L6.71277 28.5109L19.6134 38.1061H0.03125V41.5003H24.1782L34.0089 48.8121L36.3619 46.1819L9.71174 26.3592C8.15425 23.1887 8.53068 19.6446 9.86198 16.554L53.728 52.5655C58.5457 56.0928 64.8141 58.6029 71.1609 59.6118C71.1242 59.9154 71.0549 60.2129 70.9155 60.4936C69.9757 62.3821 66.8281 62.8743 64.1964 62.6895C57.8037 62.2626 51.6246 59.5737 47.2384 55.3137L46.6934 54.7841L8.49479 54.476L8.46224 57.8702L45.085 58.1654C50.0588 62.7328 56.8814 65.6043 63.9251 66.076C64.3759 66.1057 64.8174 66.1202 65.2489 66.1202C69.6301 66.1202 72.9671 64.5848 74.3051 61.8982C76.2474 58.001 73.0531 53.8079 71.6901 52.0184ZM43.5475 9.81052C45.524 8.74455 48.4637 9.37683 49.7149 11.1352C50.7582 12.6044 50.795 14.6062 50.8309 16.7244L50.8367 16.9892C47.7543 17.168 44.6034 16.6019 41.8114 15.3846L41.8365 15.3716C40.7531 13.525 41.5694 10.8742 43.5475 9.81052ZM11.6231 13.433C11.9478 12.9818 12.2859 12.545 12.6423 12.1425C16.0694 8.28499 21.5131 6.10513 26.6004 4.27527C29.0552 8.58934 31.9348 13.2253 36.5447 16.4193C40.6604 19.2695 46.0098 20.684 51.1689 20.3652C51.5345 22.3723 52.1922 24.7545 53.0369 27.2578H45.2528V30.6527H54.2747C54.9232 32.3228 55.6294 33.9929 56.3747 35.6044H51.209V38.9993H58.0441C59.2502 41.2873 60.4888 43.3066 61.6624 44.7948L68.6318 53.9533C69.121 54.5962 69.5942 55.2658 70.0057 55.9384C64.895 54.8739 59.9596 52.7762 56.1385 49.9808L11.6231 13.433Z" fill="#0D4560"/>
</svg>
