<svg width="78" height="78" viewBox="0 0 78 78" fill="none" xmlns="http://www.w3.org/2000/svg">
<g filter="url(#filter0_d_635_16890)">
<rect x="4" width="70" height="70" rx="35" fill="white"/>
</g>
<path d="M49.253 36.0137L38.9999 45.8084L28.7468 36.0137C23.0353 39.7942 19.2083 46.6158 19.2083 54.4324H58.7916C58.7916 46.6158 54.9645 39.7942 49.253 36.0137Z" fill="#0D4560"/>
<path d="M39 37.1846C42.6979 37.1846 46.0094 35.5137 48.2979 32.8726C50.2823 30.5829 51.5 27.5666 51.5 24.2485C51.5 17.1046 45.9031 11.3125 39 11.3125C32.0969 11.3125 26.5 17.1046 26.5 24.2485C26.5 27.5666 27.7177 30.5829 29.7021 32.8726C31.9906 35.5137 35.3021 37.1846 39 37.1846Z" fill="#0D4560"/>
<defs>
<filter id="filter0_d_635_16890" x="0" y="0" width="78" height="78" filterUnits="userSpaceOnUse" color-interpolation-filters="sRGB">
<feFlood flood-opacity="0" result="BackgroundImageFix"/>
<feColorMatrix in="SourceAlpha" type="matrix" values="0 0 0 0 0 0 0 0 0 0 0 0 0 0 0 0 0 0 127 0" result="hardAlpha"/>
<feOffset dy="4"/>
<feGaussianBlur stdDeviation="2"/>
<feComposite in2="hardAlpha" operator="out"/>
<feColorMatrix type="matrix" values="0 0 0 0 0 0 0 0 0 0 0 0 0 0 0 0 0 0 0.25 0"/>
<feBlend mode="normal" in2="BackgroundImageFix" result="effect1_dropShadow_635_16890"/>
<feBlend mode="normal" in="SourceGraphic" in2="effect1_dropShadow_635_16890" result="shape"/>
</filter>
</defs>
</svg>
