<svg width="50" height="48" viewBox="0 0 50 48" fill="none" xmlns="http://www.w3.org/2000/svg">
<mask id="mask0_350_7942" style="mask-type:luminance" maskUnits="userSpaceOnUse" x="0" y="0" width="50" height="48">
<path d="M0 0H49.523V48H0V0Z" fill="white"/>
</mask>
<g mask="url(#mask0_350_7942)">
<path d="M47.3371 37.7307L42.7246 31.0723C39.8284 27.0342 36.1407 16.9134 36.0349 12.7169L36.0228 12.0911C35.9952 10.3587 35.9638 8.3957 34.8907 6.73786C33.3409 4.34327 29.9602 3.54249 27.506 4.99503C25.9617 5.90729 25.021 7.5723 24.8677 9.30795C22.3783 7.0745 20.716 3.86258 19.2428 0.988411L18.7358 0L17.7019 0.403422C13.7844 1.93102 9.34385 3.66336 6.43605 7.25828C3.24276 11.2086 2.38905 16.5055 4.31362 20.4376L4.43212 20.6799L12.9505 27.6396H0.0202637V30.1015H15.9647L22.456 35.4051L24.0096 33.4972L6.41235 19.1192C5.38393 16.8195 5.63249 14.2489 6.51156 12.0072L35.4766 38.1275C38.6577 40.686 42.7968 42.5066 46.9876 43.2384C46.9634 43.4586 46.9176 43.6744 46.8256 43.878C46.205 45.2478 44.1267 45.6049 42.3889 45.4708C38.1678 45.1612 34.0877 43.2108 31.1915 40.1209L30.8316 39.7368L5.6088 39.5132L5.5873 41.9752L29.7696 42.1893C33.0538 45.5022 37.5588 47.585 42.2098 47.9272C42.5074 47.9487 42.799 47.9592 43.0839 47.9592C45.9768 47.9592 48.1803 46.8455 49.0638 44.8968C50.3463 42.0701 48.2371 39.0287 47.3371 37.7307ZM28.7544 7.11589C30.0595 6.34272 32.0006 6.80133 32.8267 8.07671C33.5156 9.14239 33.5399 10.5944 33.5636 12.1308L33.5674 12.3228C31.5321 12.4525 29.4515 12.0419 27.608 11.1589L27.6245 11.1496C26.9092 9.81016 27.4482 7.88742 28.7544 7.11589ZM7.67446 9.74338C7.88885 9.41612 8.11206 9.09934 8.3474 8.8074C10.6104 6.00938 14.2049 4.42826 17.5641 3.10099C19.185 6.23013 21.0864 9.59272 24.1303 11.9095C26.848 13.9768 30.3802 15.0028 33.7868 14.7715C34.0282 16.2274 34.4625 17.9553 35.0202 19.771H29.8803V22.2334H35.8376C36.2658 23.4448 36.7321 24.6562 37.2242 25.8251H33.8132V28.2875H38.3265C39.1229 29.947 39.9408 31.4117 40.7157 32.4912L45.3177 39.1341C45.6407 39.6004 45.9531 40.0861 46.2249 40.574C42.8502 39.8019 39.5914 38.2804 37.0683 36.2528L7.67446 9.74338Z" fill="white"/>
</g>
</svg>
