<svg width="300" height="300" viewBox="0 0 300 300" fill="none" xmlns="http://www.w3.org/2000/svg">
<rect width="300" height="300" rx="150" fill="#146A93"/>
<rect x="10" y="10" width="280" height="280" rx="140" fill="white"/>
<path d="M191.007 149.141L149.995 186.999L108.982 149.141C86.1365 163.753 70.8281 190.12 70.8281 220.332H229.161C229.161 190.12 213.853 163.753 191.007 149.141Z" fill="#0E72A1"/>
<path d="M150 153.672C164.792 153.672 178.037 147.214 187.192 137.005C195.129 128.155 200 116.497 200 103.672C200 76.0594 177.612 53.6719 150 53.6719C122.387 53.6719 100 76.0594 100 103.672C100 116.497 104.871 128.155 112.808 137.005C121.963 147.214 135.208 153.672 150 153.672Z" fill="#0E72A1"/>
</svg>
