<svg width="347" height="336" viewBox="0 0 347 336" fill="none" xmlns="http://www.w3.org/2000/svg">
<mask id="mask0_372_7948" style="mask-type:luminance" maskUnits="userSpaceOnUse" x="0" y="0" width="347" height="336">
<path d="M0 0H346.392V335.739H0V0Z" fill="white"/>
</mask>
<g mask="url(#mask0_372_7948)">
<path d="M331.102 263.91L298.84 217.337C278.582 189.093 252.789 118.302 252.049 88.9491L251.964 84.5717C251.771 72.4547 251.551 58.7242 244.046 47.1284C233.206 30.3793 209.559 24.7782 192.393 34.9381C181.591 41.3189 175.011 52.9649 173.939 65.105C156.526 49.4831 144.9 27.0171 134.596 6.9135L131.049 0L123.817 2.82176C96.416 13.5066 65.3565 25.6236 45.0177 50.7685C22.6821 78.3994 16.7107 115.449 30.1723 142.952L31.0011 144.647L90.5834 193.327H0.14209V210.547H111.666L157.07 247.643L167.937 234.299L44.852 133.731C37.6586 117.645 39.3972 99.6648 45.5459 83.985L248.144 266.685C270.394 284.581 299.345 297.315 328.658 302.434C328.489 303.974 328.169 305.483 327.525 306.908C323.184 316.489 308.647 318.986 296.493 318.048C266.967 315.883 238.429 302.241 218.171 280.628L215.654 277.941L39.2314 276.378L39.0811 293.598L208.225 295.096C231.197 318.268 262.708 332.836 295.24 335.23C297.321 335.38 299.361 335.454 301.354 335.454C321.588 335.454 337.001 327.664 343.18 314.034C352.151 294.262 337.398 272.989 331.102 263.91ZM201.125 49.7726C210.253 44.3645 223.83 47.5723 229.609 56.4931C234.428 63.947 234.597 74.103 234.763 84.8496L234.79 86.193C220.554 87.1001 206.001 84.2282 193.106 78.0519L193.222 77.9863C188.218 68.6178 191.988 55.1691 201.125 49.7726ZM53.6799 68.1507C55.1794 65.8616 56.7407 63.6459 58.3868 61.6039C74.2153 42.033 99.3573 30.9737 122.853 21.6901C134.191 43.5771 147.49 67.0969 168.781 83.3017C187.79 97.7618 212.497 104.938 236.324 103.32C238.013 113.503 241.05 125.59 244.952 138.289H209V155.513H250.669C253.664 163.986 256.925 172.459 260.368 180.635H236.509V197.859H268.078C273.648 209.466 279.369 219.711 284.789 227.262L316.978 273.726C319.237 276.988 321.423 280.385 323.323 283.797C299.719 278.397 276.925 267.754 259.277 253.572L53.6799 68.1507Z" fill="white"/>
</g>
</svg>
