<svg width="190" height="154" viewBox="0 0 190 154" fill="none" xmlns="http://www.w3.org/2000/svg">
<path d="M174.167 77L158.333 51.3334H142.5V38.5C142.5 31.4417 135.375 25.6667 126.667 25.6667H63.3333C54.625 25.6667 47.5 31.4417 47.5 38.5V102.667C47.5 109.725 54.625 115.5 63.3333 115.5H71.25C71.25 122.587 78.3394 128.333 87.0833 128.333C95.8273 128.333 102.917 122.587 102.917 115.5H130.625C130.625 122.587 137.714 128.333 146.458 128.333C155.202 128.333 162.292 122.587 162.292 115.5H174.167V77ZM150.417 115.5C150.417 117.268 148.639 118.708 146.458 118.708C144.277 118.708 142.5 117.268 142.5 115.5C142.5 113.732 144.277 112.292 146.458 112.292C148.639 112.292 150.417 113.732 150.417 115.5ZM87.0833 118.708C84.9023 118.708 83.125 117.268 83.125 115.5C83.125 113.732 84.9023 112.292 87.0833 112.292C89.2644 112.292 91.0417 113.732 91.0417 115.5C91.0417 117.268 89.2644 118.708 87.0833 118.708ZM162.292 83.4167H158.333C149.625 83.4167 142.5 77.6417 142.5 70.5834V60.9584H150.995L162.292 79.2715V83.4167Z" fill="#0E72A1"/>
</svg>
