<svg width="347" height="336" viewBox="0 0 347 336" fill="none" xmlns="http://www.w3.org/2000/svg">
<mask id="mask0_1369_26557" style="mask-type:luminance" maskUnits="userSpaceOnUse" x="0" y="0" width="347" height="336">
<path d="M0 0H346.392V335.739H0V0Z" fill="white"/>
</mask>
<g mask="url(#mask0_1369_26557)">
<path d="M331.101 263.91L298.839 217.337C278.581 189.093 252.787 118.302 252.047 88.9491L251.962 84.5717C251.77 72.4547 251.55 58.7242 244.044 47.1284C233.204 30.3793 209.558 24.7782 192.392 34.9381C181.59 41.3189 175.01 52.9649 173.938 65.105C156.525 49.4831 144.898 27.0171 134.594 6.9135L131.048 0L123.816 2.82176C96.4145 13.5066 65.3551 25.6236 45.0163 50.7685C22.6806 78.3994 16.7093 115.449 30.1708 142.952L30.9996 144.647L90.582 193.327H0.140625V210.547H111.665L157.069 247.643L167.936 234.299L44.8505 133.731C37.6572 117.645 39.3957 99.6648 45.5444 83.985L248.142 266.685C270.393 284.581 299.344 297.315 328.657 302.434C328.487 303.974 328.167 305.483 327.524 306.908C323.183 316.489 308.646 318.986 296.491 318.048C266.966 315.883 238.428 302.241 218.17 280.628L215.652 277.941L39.23 276.378L39.0796 293.598L208.224 295.096C231.196 318.268 262.706 332.836 295.238 335.23C297.32 335.38 299.359 335.454 301.352 335.454C321.587 335.454 336.999 327.664 343.179 314.034C352.149 294.262 337.396 272.989 331.101 263.91ZM201.123 49.7726C210.252 44.3645 223.829 47.5723 229.607 56.4931C234.426 63.947 234.596 74.103 234.762 84.8496L234.789 86.193C220.552 87.1001 206 84.2282 193.105 78.0519L193.22 77.9863C188.217 68.6178 191.987 55.1691 201.123 49.7726ZM53.6784 68.1507C55.178 65.8616 56.7392 63.6459 58.3853 61.6039C74.2138 42.033 99.3559 30.9737 122.852 21.6901C134.189 43.5771 147.489 67.0969 168.78 83.3017C187.789 97.7618 212.495 104.938 236.323 103.32C238.011 113.503 241.049 125.59 244.95 138.289H208.999V155.513H250.667C253.662 163.986 256.924 172.459 260.366 180.635H236.508V197.859H268.076C273.647 209.466 279.367 219.711 284.787 227.262L316.976 273.726C319.235 276.988 321.421 280.385 323.322 283.797C299.718 278.397 276.923 267.754 259.275 253.572L53.6784 68.1507Z" fill="#1591CC"/>
</g>
</svg>
