<svg width="16" height="17" viewBox="0 0 16 17" fill="none" xmlns="http://www.w3.org/2000/svg">
<path d="M12.5 6.45746V6.95746H13H14C14.9322 6.95746 15.5 7.55234 15.5 8.07182V14.5293C15.5 15.0487 14.9322 15.6436 14 15.6436H2C1.0678 15.6436 0.5 15.0487 0.5 14.5293V8.07182C0.5 7.55234 1.0678 6.95746 2 6.95746H3H3.5V6.45746V4.03591C3.5 2.18136 5.4138 0.5 8 0.5C10.5862 0.5 12.5 2.18136 12.5 4.03591V6.45746ZM11 6.95746H11.5V6.45746V4.03591C11.5 2.32998 9.8248 1.11436 8 1.11436C6.1752 1.11436 4.5 2.32998 4.5 4.03591V6.45746V6.95746H5H11Z" fill="#0D4560" stroke="black"/>
</svg>
